PathFileType	4	(X/Y/Z)	RBDS017static.trc
DataRate	CameraRate	NumFrames	NumMarkers	Units	OrigDataRate	OrigDataStartFrame	OrigNumFrames
150.000000	150.000000	4	48	mm	150.000000	56	150
Frame#	Time	L.Ankle			L.Ankle.Medial			L.ASIS			L.GTR			L.Heel.Bottom			L.Heel.Lateral			L.Heel.Top			L.HF			L.Iliac.Crest			L.Knee			L.Knee.Medial			L.MT1			L.MT2			L.MT5			L.PSIS			L.Shank.Bottom.Lateral			L.Shank.Bottom.Medial			L.Shank.Top.Lateral			L.Shank.Top.Medial			L.Thigh.Bottom.Lateral			L.Thigh.Bottom.Medial			L.Thigh.Top.Lateral			L.Thigh.Top.Medial			L.TT			R.Ankle			R.Ankle.Medial			R.ASIS			R.GTR			R.Heel.Bottom			R.Heel.Lateral			R.Heel.Top			R.HF			R.Iliac.Crest			R.Knee			R.Knee.Medial			R.MT1			R.MT2			R.MT5			R.PSIS			R.Shank.Bottom.Lateral			R.Shank.Bottom.Medial			R.Shank.Top.Lateral			R.Shank.Top.Medial			R.Thigh.Bottom.Lateral			R.Thigh.Bottom.Medial			R.Thigh.Top.Lateral			R.Thigh.Top.Medial			R.TT			
		X1	Y1	Z1	X2	Y2	Z2	X3	Y3	Z3	X4	Y4	Z4	X5	Y5	Z5	X6	Y6	Z6	X7	Y7	Z7	X8	Y8	Z8	X9	Y9	Z9	X10	Y10	Z10	X11	Y11	Z11	X12	Y12	Z12	X13	Y13	Z13	X14	Y14	Z14	X15	Y15	Z15	X16	Y16	Z16	X17	Y17	Z17	X18	Y18	Z18	X19	Y19	Z19	X20	Y20	Z20	X21	Y21	Z21	X22	Y22	Z22	X23	Y23	Z23	X24	Y24	Z24	X25	Y25	Z25	X26	Y26	Z26	X27	Y27	Z27	X28	Y28	Z28	X29	Y29	Z29	X30	Y30	Z30	X31	Y31	Z31	X32	Y32	Z32	X33	Y33	Z33	X34	Y34	Z34	X35	Y35	Z35	X36	Y36	Z36	X37	Y37	Z37	X38	Y38	Z38	X39	Y39	Z39	X40	Y40	Z40	X41	Y41	Z41	X42	Y42	Z42	X43	Y43	Z43	X44	Y44	Z44	X45	Y45	Z45	X46	Y46	Z46	X47	Y47	Z47	X48	Y48	Z48	

57	0.3733333333333334	707.2954711914063	114.0239486694336	1037.862915039063	734.5814208984375	124.9935684204102	1120.627685546875	860.5192260742188	1078.573608398438	1089.26806640625	782.4251098632813	992.3546142578125	1039.106323242188	643.1900634765625	41.18740463256836	1078.244995117188	664.8845825195313	61.1917610168457	1042.464477539063	650.0399780273438	87.39727783203125	1080.357177734375	772.9146728515625	511.4713134765625	1048.242553710938	786.3693237304688	1170.022338867188	1051.676391601563	775.763916015625	566.1068725585938	1055.59716796875	768.4356079101563	551.7958374023438	1175.426513671875	865.0553588867188	63.70514297485352	1123.931396484375	869.31982421875	68.1917724609375	1074.845825195313	834.9537963867188	50.33414077758789	1013.912292480469	681.1572265625	1137.521240234375	1175.820434570313	718.4591064453125	209.2003631591797	1036.200927734375	676.0392456054688	210.6427307128906	1071.355712890625	716.3876342773438	289.638427734375	1030.882690429688	674.959716796875	291.4960021972656	1065.272705078125	787.0147094726563	694.966552734375	1035.707397460938	721.3345336914063	686.4732055664063	1065.431762695313	766.7516479492188	803.7582397460938	1032.337158203125	707.97802734375	796.1558227539063	1066.23095703125	826.4093627929688	482.4488830566406	1090.294799804688	710.59130859375	110.0327453613281	1414.465209960938	732.327392578125	122.5512313842773	1330.126831054688	850.3512573242188	1074.184936523438	1374.137329101563	775.1691284179688	986.616943359375	1417.289184570313	641.3675537109375	43.50921630859375	1370.198852539063	666.8704833984375	65.15619659423828	1409.692749023438	651.5980834960938	90.28467559814453	1370.526489257813	767.5559692382813	507.4705810546875	1399.970581054688	788.2911376953125	1159.911743164063	1410.826538085938	773.011474609375	563.6156616210938	1392.460327148438	777.9869384765625	548.2636108398438	1272.316162109375	863.010986328125	65.40325164794922	1329.116455078125	872.5691528320313	69.99242401123047	1371.65283203125	830.9228515625	51.39275360107422	1442.283203125	679.6953735351563	1135.05712890625	1277.767456054688	712.755859375	208.4225921630859	1414.212768554688	675.4500732421875	212.7732238769531	1379.266235351563	715.0922241210938	293.2118530273438	1420.465087890625	674.2754516601563	293.4670715332031	1385.737426757813	769.7657470703125	689.3883056640625	1409.157470703125	707.8807373046875	682.5413208007813	1369.244873046875	750.151611328125	797.7514038085938	1413.3505859375	695.022216796875	791.51708984375	1371.391845703125	825.6547241210938	479.6610412597656	1358.1396484375	
58	0.38	707.2807006835938	114.019172668457	1037.867431640625	734.5715942382813	124.9998550415039	1120.626953125	860.4881591796875	1078.580200195313	1089.246215820313	782.390625	992.3499755859375	1039.097778320313	643.1904907226563	41.18574905395508	1078.252319335938	664.8803100585938	61.18936920166016	1042.465942382813	650.0406494140625	87.39106750488281	1080.358032226563	772.8831787109375	511.4826354980469	1048.240600585938	786.3340454101563	1170.023071289063	1051.68017578125	775.73486328125	566.1046142578125	1055.60205078125	768.4137573242188	551.8009033203125	1175.44091796875	865.0523071289063	63.70244598388672	1123.928833007813	869.3145751953125	68.18760681152344	1074.839111328125	834.9517211914063	50.33438110351563	1013.905944824219	681.1205444335938	1137.52490234375	1175.803833007813	718.4442138671875	209.1992034912109	1036.197631835938	676.0252685546875	210.6343078613281	1071.357543945313	716.3756103515625	289.6317138671875	1030.880249023438	674.9365844726563	291.4826354980469	1065.2734375	786.9757690429688	694.9718627929688	1035.712646484375	721.3145751953125	686.4708862304688	1065.423583984375	766.7163696289063	803.7640380859375	1032.3388671875	707.9511108398438	796.151123046875	1066.22900390625	826.6441650390625	482.2704162597656	1090.162231445313	710.5942993164063	110.0345153808594	1414.470336914063	732.3350830078125	122.5406723022461	1330.14892578125	850.3115234375	1074.192993164063	1374.1240234375	775.1238403320313	986.6194458007813	1417.282470703125	641.361083984375	43.50292587280273	1370.204711914063	666.8699340820313	65.16582489013672	1409.701171875	651.5982055664063	90.28527069091797	1370.523559570313	767.5487670898438	507.4735717773438	1399.959106445313	788.2752075195313	1159.940673828125	1410.8095703125	772.9789428710938	563.6254272460938	1392.470458984375	777.9579467773438	548.2669677734375	1272.312622070313	863.01220703125	65.40309143066406	1329.111450195313	872.5660400390625	69.99533843994141	1371.649780273438	830.9193725585938	51.38893890380859	1442.265991210938	679.6558837890625	1135.063720703125	1277.76416015625	712.7510986328125	208.4212188720703	1414.213745117188	675.446044921875	212.7636413574219	1379.267944335938	715.0811157226563	293.2093811035156	1420.473754882813	674.2655639648438	293.4654235839844	1385.733520507813	769.747314453125	689.3910522460938	1409.162963867188	707.8590087890625	682.5347900390625	1369.269165039063	750.1350708007813	797.7548828125	1413.354736328125	694.9969482421875	791.5108032226563	1371.40087890625	825.6342163085938	479.6614074707031	1358.134033203125	
59	0.3866666666666667	707.2719116210938	114.0157775878906	1037.868408203125	734.5659790039063	124.9928741455078	1120.62255859375	860.4544677734375	1078.576538085938	1089.238647460938	782.3591918945313	992.34814453125	1039.08544921875	643.1890869140625	41.17835998535156	1078.252563476563	664.8762817382813	61.18272399902344	1042.459594726563	650.0328979492188	87.38600921630859	1080.359497070313	772.84228515625	511.4852600097656	1048.234619140625	786.29443359375	1170.035034179688	1051.671630859375	775.6970825195313	566.1035766601563	1055.591796875	768.3746948242188	551.7944946289063	1175.431762695313	865.0463256835938	63.70450973510742	1123.926879882813	869.297607421875	68.19491577148438	1074.83642578125	834.9484252929688	50.33378982543945	1013.903198242188	681.0908813476563	1137.531127929688	1175.7861328125	718.4306030273438	209.1999053955078	1036.195190429688	676.0050048828125	210.6331481933594	1071.356567382813	716.3555908203125	289.6297607421875	1030.88037109375	674.9148559570313	291.4763488769531	1065.2783203125	786.9466552734375	694.9710693359375	1035.706420898438	721.2799072265625	686.4682006835938	1065.429931640625	766.700439453125	803.7576904296875	1032.33837890625	707.9170532226563	796.15234375	1066.22607421875	826.59130859375	482.2703857421875	1090.166137695313	710.61279296875	109.9038009643555	1414.148559570313	732.3245239257813	122.5494689941406	1330.1416015625	850.2804565429688	1074.201049804688	1374.104125976563	775.0812377929688	986.6226196289063	1417.27490234375	641.3598022460938	43.50780868530273	1370.201538085938	666.8628540039063	65.16140747070313	1409.695556640625	651.5972900390625	90.28293609619141	1370.52392578125	767.5213623046875	507.4718322753906	1399.966918945313	788.2517700195313	1159.962890625	1410.791748046875	772.9636840820313	563.6288452148438	1392.476806640625	777.92626953125	548.2700805664063	1272.300415039063	863.008056640625	65.40534210205078	1329.121826171875	872.5656127929688	69.99965667724609	1371.650390625	830.9197998046875	51.39279174804688	1442.273193359375	679.6267700195313	1135.080078125	1277.743408203125	712.7421264648438	208.4192504882813	1414.22314453125	675.4432983398438	212.7648315429688	1379.270751953125	715.0833129882813	293.2174987792969	1420.464477539063	674.2637329101563	293.4636840820313	1385.7333984375	769.7283935546875	689.3934936523438	1409.15869140625	707.8368530273438	682.537109375	1369.275268554688	750.110107421875	797.7448120117188	1413.352294921875	694.9755249023438	791.5044555664063	1371.405883789063	825.61865234375	479.6617126464844	1358.1240234375	
60	0.3933333333333334	707.2703247070313	114.0183944702148	1037.86572265625	734.5584716796875	124.9947891235352	1120.628173828125	860.4197387695313	1078.57177734375	1089.229370117188	782.3280029296875	992.346923828125	1039.085693359375	643.1901245117188	41.17545700073242	1078.25146484375	664.8746337890625	61.18437957763672	1042.456909179688	650.03369140625	87.38458251953125	1080.359375	772.7947998046875	511.4757690429688	1048.240600585938	786.2579956054688	1170.038818359375	1051.676025390625	775.6514892578125	566.105224609375	1055.597534179688	768.3241577148438	551.79541015625	1175.438110351563	865.0308227539063	63.69839477539063	1123.923095703125	869.2993774414063	68.20102691650391	1074.840209960938	834.946533203125	50.33190155029297	1013.910034179688	681.0620727539063	1137.537963867188	1175.775634765625	718.4104614257813	209.1959533691406	1036.197631835938	675.9977416992188	210.6265869140625	1071.35986328125	716.330078125	289.6229248046875	1030.88330078125	674.8873291015625	291.4743347167969	1065.285034179688	786.911376953125	694.9668579101563	1035.713989257813	721.2461547851563	686.4800415039063	1065.421020507813	766.6735229492188	803.7592163085938	1032.34521484375	707.8864135742188	796.158935546875	1066.214599609375	826.5494384765625	482.281494140625	1090.158203125	710.594482421875	110.0373458862305	1414.465698242188	732.337890625	122.5474472045898	1330.12060546875	850.23828125	1074.20703125	1374.096069335938	775.0477294921875	986.6223754882813	1417.263305664063	641.3575439453125	43.50568389892578	1370.1982421875	666.861328125	65.16245269775391	1409.696655273438	651.6033935546875	90.28314208984375	1370.523803710938	767.5091552734375	507.4761962890625	1399.963012695313	788.2169799804688	1159.9765625	1410.776611328125	772.952880859375	563.6290893554688	1392.4658203125	777.9136352539063	548.2744750976563	1272.300659179688	863.0037841796875	65.404541015625	1329.115112304688	872.561279296875	70.00131225585938	1371.64697265625	830.9178466796875	51.39151382446289	1442.2744140625	679.5943603515625	1135.074829101563	1277.738037109375	712.7412109375	208.4203338623047	1414.212768554688	675.4378662109375	212.7638397216797	1379.272705078125	715.0684204101563	293.2108764648438	1420.469116210938	674.259521484375	293.4620666503906	1385.734741210938	769.7029418945313	689.3967895507813	1409.159423828125	707.8150634765625	682.5289916992188	1369.2685546875	750.078369140625	797.7518310546875	1413.354858398438	694.9478149414063	791.5076293945313	1371.40087890625	825.60302734375	479.6703796386719	1358.121459960938	
